<svg xmlns="http://www.w3.org/2000/svg" width="900" height="700" viewBox="0 0 900 700"><rect width="100%" height="100%" fill="#2250d0"/><path fill="#f5f0e8" d="M224.895 372.83h13.09l-24.1-53.9h-12.32l-24.03 53.9h12.79l4.77-11.55h25.02Zm-25.8-21.02 8.55-20.64 8.55 20.64Zm96.72-21.02c-6.24 0-11.63 2.54-14.94 6.77-2.93-4.54-7.86-6.77-13.63-6.77-5.31 0-9.93 1.85-13.01 5.39v-4.78h-11.48v41.43h12.01v-20.79c0-7.39 3.78-10.86 9.09-10.86 5.01 0 7.85 3.08 7.85 9.78v21.87h12.02v-20.79c0-7.39 3.77-10.86 9.16-10.86 4.85 0 7.85 3.08 7.85 9.78v21.87h12.02v-23.72c0-12.62-7.09-18.32-16.94-18.32m44.42 0c-6.62 0-13.32 1.77-17.86 5l4.31 8.4c3.01-2.39 7.55-3.85 11.94-3.85 6.47 0 9.55 3 9.55 8.16h-9.55c-12.63 0-17.79 5.08-17.79 12.39 0 7.17 5.78 12.56 15.48 12.56 6.08 0 10.39-2.01 12.63-5.78v5.16h11.24v-23.64c0-12.55-7.32-18.4-19.95-18.4m-.92 34.57c-4.23 0-6.78-2-6.78-5 0-2.78 1.78-4.85 7.4-4.85h8.24v4.23c-1.39 3.77-4.86 5.62-8.86 5.62m44.04-1.77 21.1-24.95v-7.24h-35.73v9.24h20.56l-21.09 24.95v7.24h36.96v-9.24Zm42.66-33.03c0-4.08 1.93-6.01 5.47-6.01 1.85 0 3.54.54 4.85 1.46l3.16-8.7c-2.24-1.54-5.78-2.23-9.17-2.23-10.31 0-16.01 6.08-16.01 15.4v1.85h-6.39v9.24h6.39v31.26h12.01v-31.26h10.32v-9.24h-10.63Zm28.8-4.93c4.47 0 7.47-2.93 7.47-6.93 0-3.7-3-6.47-7.47-6.47s-7.47 2.93-7.47 6.7 3 6.7 7.47 6.7m-6.01 47.2h12.02V331.4h-12.02Zm46.67-10.47c-1.31 1-3.08 1.54-4.85 1.54-3.24 0-5.16-1.93-5.16-5.47v-16.86h10.31v-9.24h-10.31v-10.09h-12.02v10.09h-6.39v9.24h6.39v17.02c0 9.85 5.7 14.86 15.48 14.86 3.7 0 7.32-.85 9.78-2.62Zm72.22-17.56c4.39-2.31 7.16-6.47 7.16-11.86 0-8.39-6.93-14.01-20.4-14.01h-26.34v53.9h27.88c14.17 0 21.56-5.39 21.56-14.71 0-6.77-3.85-11.39-9.86-13.32m-14.78-16.48c6.08 0 9.39 2.08 9.39 6.32 0 4.23-3.31 6.39-9.39 6.39h-12.4v-12.71Zm2.15 35.12h-14.55v-13.32h14.55c6.47 0 9.94 2.15 9.94 6.69 0 4.62-3.47 6.63-9.94 6.63m37.12-37.81c4.46 0 7.47-2.93 7.47-6.93 0-3.7-3.01-6.47-7.47-6.47-4.47 0-7.47 2.93-7.47 6.7s3 6.7 7.47 6.7m-6.01 47.2h12.01V331.4h-12.01Zm47.67-42.04c-5.55 0-10.01 1.77-13.02 5.39v-4.78h-11.47v56.37h12.01v-19.33c3.08 3.39 7.32 5.01 12.48 5.01 11.62 0 20.63-8.32 20.63-21.33 0-13.02-9.01-21.33-20.63-21.33m-2.08 32.8c-6.01 0-10.55-4.31-10.55-11.47s4.54-11.48 10.55-11.48c6 0 10.55 4.32 10.55 11.48s-4.55 11.47-10.55 11.47m68.45-24.41h-4.39l.85-10.24h22.48v-10.01h-32.88l-2.77 30.34h13.78c9.78 0 12.55 2.77 12.55 7.01 0 4.38-3.85 7-10.08 7-5.62 0-11.24-1.77-15.33-4.85l-4.92 9.55c5.23 3.69 13.09 5.77 20.56 5.77 15.4 0 22.4-8.31 22.4-17.86s-6.31-16.71-22.25-16.71"/></svg>