<svg xmlns="http://www.w3.org/2000/svg" width="900" height="700" viewBox="0 0 900 700"><rect width="100%" height="100%" fill="#805ad5"/><path fill="#f5f0e8" d="M178.46 367.52h15.27c10.99 0 18.53-6.62 18.53-16.8s-7.54-16.8-18.53-16.8h-15.27Zm7.78-6.38V340.3h7.1c6.68 0 11.04 3.99 11.04 10.42s-4.36 10.42-11.04 10.42ZM228 341.31c-4.13 0-8.3 1.11-11.14 3.12l2.69 5.23c1.87-1.48 4.71-2.4 7.44-2.4 4.03 0 5.95 1.88 5.95 5.09h-5.95c-7.87 0-11.09 3.17-11.09 7.73 0 4.46 3.6 7.82 9.65 7.82 3.79 0 6.48-1.24 7.87-3.6v3.22h7.01v-14.74c0-7.82-4.56-11.47-12.43-11.47m-.58 21.55c-2.64 0-4.22-1.24-4.22-3.12 0-1.72 1.1-3.02 4.61-3.02h5.13v2.64c-.86 2.35-3.02 3.5-5.52 3.5m35.48-21.55c-3.32 0-6.2 1.06-8.21 3.07V331.9h-7.49v35.62h7.49v-12.77c0-4.75 2.59-6.96 6.19-6.96 3.31 0 5.23 1.92 5.23 6.1v13.63h7.49v-14.78c0-7.88-4.61-11.43-10.7-11.43m36 .39v12.76c0 4.76-2.5 6.96-5.96 6.96-3.31 0-5.23-1.92-5.23-6.24V341.7h-7.49v14.59c0 7.97 4.56 11.61 11.04 11.61 3.17 0 6.05-1.2 8.02-3.45v3.07h7.1V341.7Zm24.86-.39c-4.13 0-8.3 1.11-11.14 3.12l2.69 5.23c1.87-1.48 4.71-2.4 7.44-2.4 4.03 0 5.95 1.88 5.95 5.09h-5.95c-7.87 0-11.09 3.17-11.09 7.73 0 4.46 3.6 7.82 9.65 7.82 3.79 0 6.48-1.24 7.87-3.6v3.22h7.01v-14.74c0-7.82-4.56-11.47-12.43-11.47m-.58 21.55c-2.64 0-4.22-1.24-4.22-3.12 0-1.72 1.1-3.02 4.61-3.02h5.13v2.64c-.86 2.35-3.02 3.5-5.52 3.5m33.89 4.66h7.78v-33.6h-7.78Zm30.29-33.6h-14.54v33.6h7.77v-9.26h6.77c8.98 0 14.59-4.66 14.59-12.15 0-7.53-5.61-12.19-14.59-12.19m-.43 18h-6.34v-11.66h6.34c4.75 0 7.15 2.16 7.15 5.85 0 3.65-2.4 5.81-7.15 5.81m37.1 16.18c5.86 0 10.71-2.12 13.87-6l-4.99-4.61c-2.25 2.64-5.09 3.98-8.45 3.98-6.28 0-10.75-4.41-10.75-10.75s4.47-10.75 10.75-10.75c3.36 0 6.2 1.34 8.45 3.93l4.99-4.6c-3.16-3.84-8.01-5.96-13.82-5.96-10.46 0-18.24 7.25-18.24 17.38s7.78 17.38 18.19 17.38m17.33-11.09h13.58v-6h-13.58Zm43.06-23.09v13.25h-15.27v-13.25h-7.77v33.6h7.77v-13.78h15.27v13.78h7.77v-33.6Zm41.13 6.24v-6.24h-25.39v33.6h7.78v-12.24h15.55v-6.24h-15.55v-8.88Zm48.63-6.24-7.83 23.81-7.68-23.81h-7.2l-7.92 23.62-7.58-23.62h-8.07l11.04 33.6h8.31l7.63-22.75 7.39 22.75h8.35l11-33.6Zm10.27 0v6.24h6.72v27.36h7.77v-33.6Zm31.01 27.26 7.72-7.29c4.71-4.37 5.62-7.35 5.62-10.61 0-6.1-4.99-9.94-12.48-9.94-6.05 0-10.75 2.45-13.34 6.24l5.66 3.65c1.63-2.25 4.08-3.36 6.96-3.36 3.55 0 5.38 1.54 5.38 4.18 0 1.63-.53 3.36-3.51 6.19l-12.96 12.24v5.04h25.39v-6.34Zm33.36-13.58 7.58-8.64v-5.04h-23.52v6.24h14.3l-6.91 7.82v5.14h3.55c4.42 0 6.29 1.58 6.29 4.13 0 2.73-2.4 4.32-6.29 4.32-3.5 0-7.05-1.11-9.6-3.03l-3.02 5.96c3.26 2.3 8.11 3.6 12.82 3.6 9.55 0 13.92-5.19 13.92-10.85 0-4.95-3.08-8.69-9.12-9.65m27.12 20.5c8.3 0 14.4-6.29 14.4-17.38s-6.1-17.38-14.4-17.38c-8.26 0-14.4 6.29-14.4 17.38s6.14 17.38 14.4 17.38m0-6.58c-3.84 0-6.53-3.17-6.53-10.8s2.69-10.8 6.53-10.8c3.88 0 6.57 3.17 6.57 10.8s-2.69 10.8-6.57 10.8m31.34 6.58c9.6 0 14.26-4.8 14.26-10.42 0-12.34-19.54-8.06-19.54-14.26 0-2.11 1.78-3.84 6.38-3.84 2.98 0 6.2.87 9.32 2.64l2.4-5.9c-3.12-1.97-7.44-2.98-11.67-2.98-9.55 0-14.16 4.76-14.16 10.47 0 12.48 19.54 8.16 19.54 14.45 0 2.06-1.87 3.6-6.48 3.6-4.03 0-8.26-1.44-11.09-3.51l-2.64 5.86c2.98 2.3 8.35 3.89 13.68 3.89"/></svg>