<svg xmlns="http://www.w3.org/2000/svg" width="900" height="700" viewBox="0 0 900 700"><rect width="100%" height="100%" fill="#ed4a32"/><path fill="#f5f0e8" d="M211.64 328.895v17.39h-20.03v-17.39H181.4v44.1h10.21v-18.08h20.03v18.08h10.21v-44.1Zm39.76 0h-19.09v44.1h10.2v-12.16h8.89c11.78 0 19.15-6.11 19.15-15.94 0-9.89-7.37-16-19.15-16m-.57 23.62h-8.32v-15.3h8.32c6.24 0 9.39 2.83 9.39 7.68 0 4.79-3.15 7.62-9.39 7.62m45.42 20.48h20.04c14.42 0 24.31-8.69 24.31-22.05s-9.89-22.05-24.31-22.05h-20.04Zm10.21-8.38v-27.34h9.32c8.76 0 14.49 5.23 14.49 13.67s-5.73 13.67-14.49 13.67Zm74.34-8.44c0-10.9-7.69-17.58-17.64-17.58-10.33 0-18.08 7.31-18.08 17.45 0 10.08 7.62 17.45 19.34 17.45 6.11 0 10.83-1.89 13.98-5.48l-5.22-5.67c-2.34 2.21-4.92 3.28-8.51 3.28-5.17 0-8.76-2.58-9.7-6.81h25.64c.06-.81.19-1.89.19-2.64m-17.58-10.14c4.41 0 7.62 2.77 8.32 7.05h-16.7c.7-4.34 3.91-7.05 8.38-7.05m35.53 27.46c10.15 0 16.01-4.47 16.01-10.77 0-13.36-20.48-7.75-20.48-13.54 0-1.77 1.89-3.15 6.3-3.15 3.09 0 6.43.63 9.77 2.52l3.27-7c-3.21-1.89-8.38-2.96-13.04-2.96-9.89 0-15.69 4.54-15.69 10.96 0 13.55 20.48 7.88 20.48 13.42 0 1.89-1.7 3.09-6.24 3.09-4.16 0-8.76-1.32-11.78-3.28l-3.28 7.06c3.15 2.08 8.95 3.65 14.68 3.65m47.32-.5h11.9l-15.37-19.53 14.11-14.36H445l-14.37 13.6v-26.46h-9.83v46.75h9.83v-8.63l4.73-4.66Zm25.13.76c10.4 0 15.88-5.36 15.88-16.26v-28.6h-25.64v8.19h15.5v20.98c0 4.85-2.15 7.31-6.24 7.31-3.15 0-5.8-1.64-8.19-4.85l-5.67 6.8c3.21 4.16 8.44 6.43 14.36 6.43m58.47-17.58c0-10.9-7.69-17.58-17.64-17.58-10.33 0-18.08 7.31-18.08 17.45 0 10.08 7.62 17.45 19.34 17.45 6.11 0 10.83-1.89 13.98-5.48l-5.23-5.67c-2.33 2.21-4.91 3.28-8.5 3.28-5.17 0-8.76-2.58-9.7-6.81h25.64c.06-.81.19-1.89.19-2.64m-17.58-10.14c4.41 0 7.62 2.77 8.32 7.05h-16.7c.69-4.34 3.91-7.05 8.38-7.05m43.34 18.39c-1.07.82-2.52 1.26-3.96 1.26-2.65 0-4.23-1.57-4.23-4.47v-13.8h8.45v-7.56h-8.45v-8.25h-9.82v8.25h-5.23v7.56h5.23v13.93c0 8.06 4.66 12.15 12.66 12.15 3.02 0 5.98-.69 8-2.14Zm37.93.25 10.14-9.57c6.18-5.74 7.37-9.64 7.37-13.93 0-8-6.55-13.04-16.38-13.04-7.93 0-14.11 3.22-17.51 8.19l7.43 4.79c2.15-2.96 5.36-4.41 9.14-4.41 4.66 0 7.06 2.02 7.06 5.48 0 2.15-.7 4.41-4.6 8.13L579 366.375v6.62h33.32v-8.32Zm22.24-35.78v15.5h9.07v-7.18h14.62l-15.82 35.78h11.09l16.38-37.48v-6.62Zm38.49 0v8.19h8.82v35.91h10.21v-44.1Zm45.61 44.86c10.9 0 18.9-8.26 18.9-22.81s-8-22.81-18.9-22.81c-10.83 0-18.9 8.26-18.9 22.81s8.07 22.81 18.9 22.81m0-8.64c-5.04 0-8.56-4.15-8.56-14.17s3.52-14.18 8.56-14.18c5.11 0 8.64 4.16 8.64 14.18s-3.53 14.17-8.64 14.17"/></svg>