<svg xmlns="http://www.w3.org/2000/svg" width="900" height="700" viewBox="0 0 900 700"><rect width="100%" height="100%" fill="#168c4d"/><path fill="#f5f0e8" d="M184.535 379.45h12.31v-53.2h-12.31Zm48.94-41.5c-5.55 0-10.34 1.9-13.53 5.4v-4.79h-11.32v40.89h11.85v-20.22c0-7.52 4.11-11.02 9.81-11.02 5.24 0 8.28 3.04 8.28 9.66v21.58h11.86v-23.41c0-12.46-7.3-18.09-16.95-18.09m40.66-.22c0-4.03 1.9-5.93 5.4-5.93 1.82 0 3.49.53 4.78 1.44l3.12-8.59c-2.2-1.52-5.7-2.2-9.04-2.2-10.19 0-15.81 6-15.81 15.2v1.82h-6.31v9.12h6.31v30.86h11.85v-30.86h10.19v-9.12h-10.49Zm28.42-4.87c4.41 0 7.38-2.89 7.38-6.84 0-3.65-2.97-6.38-7.38-6.38-4.4 0-7.37 2.89-7.37 6.61s2.97 6.61 7.37 6.61m-5.92 46.59h11.85v-40.89h-11.85Zm47.72-41.5c-5.54 0-10.33 1.9-13.52 5.4v-4.79h-11.33v40.89h11.86v-20.22c0-7.52 4.1-11.02 9.8-11.02 5.25 0 8.29 3.04 8.29 9.66v21.58h11.85v-23.41c0-12.46-7.29-18.09-16.95-18.09m33.6-5.09c4.4 0 7.37-2.89 7.37-6.84 0-3.65-2.97-6.38-7.37-6.38-4.41 0-7.38 2.89-7.38 6.61s2.97 6.61 7.38 6.61m-5.93 46.59h11.85v-40.89h-11.85Zm62.32 0-15.81-20.9 15.2-19.99h-12.62l-8.89 11.93-8.66-11.93h-13.3l15.2 20.29-15.73 20.6h12.92l9.27-12.54 8.97 12.54Zm64.6-53.2v20.98h-24.17v-20.98h-12.31v53.2h12.31v-21.81h24.17v21.81h12.31v-53.2Zm43.55 53.81c12.99 0 22.42-8.74 22.42-21.05 0-12.32-9.43-21.06-22.42-21.06-13 0-22.5 8.74-22.5 21.06 0 12.31 9.5 21.05 22.5 21.05m0-9.73c-5.93 0-10.49-4.26-10.49-11.32 0-7.07 4.56-11.33 10.49-11.33 5.92 0 10.41 4.26 10.41 11.33 0 7.06-4.49 11.32-10.41 11.32m53.5-1.22c-1.29.99-3.04 1.52-4.79 1.52-3.19 0-5.09-1.9-5.09-5.39v-16.65h10.18v-9.12h-10.18v-9.95h-11.86v9.95h-6.3v9.12h6.3v16.8c0 9.73 5.63 14.67 15.28 14.67 3.65 0 7.22-.84 9.65-2.59Zm53.73-21.2 12.01-13.68v-7.98h-37.24v9.88h22.65l-10.95 12.39v8.13h5.63c6.99 0 9.95 2.51 9.95 6.54 0 4.33-3.8 6.84-9.95 6.84-5.55 0-11.17-1.75-15.2-4.79l-4.79 9.42c5.17 3.65 12.84 5.7 20.29 5.7 15.13 0 22.04-8.21 22.04-17.17 0-7.83-4.86-13.76-14.44-15.28m42.94 32.45c13.15 0 22.8-9.95 22.8-27.51s-9.65-27.51-22.8-27.51c-13.07 0-22.8 9.95-22.8 27.51s9.73 27.51 22.8 27.51m0-10.41c-6.08 0-10.33-5.02-10.33-17.1s4.25-17.1 10.33-17.1c6.16 0 10.41 5.02 10.41 17.1s-4.25 17.1-10.41 17.1"/></svg>