<svg xmlns="http://www.w3.org/2000/svg" width="900" height="700" viewBox="0 0 900 700"><rect width="100%" height="100%" fill="#d79e16"/><path fill="#f5f0e8" d="M192.32 374.25c11.05 0 16.88-5.69 16.88-17.28v-30.42h-27.27v8.71h16.48v22.31c0 5.16-2.27 7.77-6.63 7.77-3.35 0-6.16-1.74-8.71-5.16l-6.03 7.24c3.42 4.42 8.98 6.83 15.28 6.83m62.04-25.19c3.82-2.01 6.23-5.63 6.23-10.32 0-7.3-6.03-12.19-17.75-12.19h-22.92v46.9h24.26c12.32 0 18.76-4.69 18.76-12.8 0-5.89-3.35-9.91-8.58-11.59m-12.86-14.34c5.29 0 8.17 1.81 8.17 5.5 0 3.68-2.88 5.56-8.17 5.56h-10.79v-11.06Zm1.87 30.56h-12.66v-11.6h12.66c5.63 0 8.64 1.88 8.64 5.83 0 4.02-3.01 5.77-8.64 5.77m27.81 8.17h34.37v-8.84h-23.52v-38.06h-10.85Zm69.14 0h10.85v-38.06h15.01v-8.84h-40.87v8.84h15.01Zm56.01-36.05v17.83c0 6.63-3.48 9.71-8.31 9.71-4.62 0-7.3-2.68-7.3-8.71V337.4h-10.45v20.37c0 11.12 6.36 16.22 15.41 16.22 4.42 0 8.44-1.68 11.19-4.83v4.29h9.91V337.4Zm42.08-.53c-4.89 0-9.11 1.67-11.93 4.75v-4.22h-9.98v36.05h10.45v-17.82c0-6.64 3.62-9.72 8.64-9.72 4.63 0 7.31 2.68 7.31 8.51v19.03h10.45v-20.64c0-10.98-6.43-15.94-14.94-15.94m60.1 18.69c0-11.59-8.18-18.69-18.76-18.69-10.99 0-19.23 7.77-19.23 18.56 0 10.72 8.11 18.56 20.57 18.56 6.5 0 11.52-2.01 14.87-5.83l-5.56-6.03c-2.48 2.34-5.23 3.48-9.04 3.48-5.5 0-9.32-2.75-10.32-7.24h27.27c.06-.87.2-2.01.2-2.81m-18.7-10.79c4.7 0 8.11 2.95 8.85 7.51H470.9c.74-4.63 4.16-7.51 8.91-7.51m58.5-.6h-3.82l.73-8.91h19.57v-8.71h-28.61l-2.41 26.4h11.99c8.51 0 10.92 2.41 10.92 6.09 0 3.82-3.35 6.1-8.78 6.1-4.89 0-9.78-1.54-13.33-4.22l-4.29 8.31c4.56 3.21 11.39 5.02 17.89 5.02 13.4 0 19.5-7.23 19.5-15.54s-5.5-14.54-19.36-14.54m21.64-17.62v8.71h9.38v38.19h10.85v-46.9Zm48.5 47.7c11.6 0 20.1-8.77 20.1-24.25s-8.5-24.25-20.1-24.25c-11.52 0-20.09 8.77-20.09 24.25s8.57 24.25 20.09 24.25m0-9.18c-5.35 0-9.11-4.42-9.11-15.07s3.76-15.08 9.11-15.08c5.43 0 9.18 4.43 9.18 15.08s-3.75 15.07-9.18 15.07m62.78-16.01c3.82-2.01 6.24-5.63 6.24-10.32 0-7.3-6.04-12.19-17.76-12.19H636.8v46.9h24.25c12.33 0 18.76-4.69 18.76-12.8 0-5.89-3.35-9.91-8.58-11.59m-12.86-14.34c5.29 0 8.17 1.81 8.17 5.5 0 3.68-2.88 5.56-8.17 5.56h-10.79v-11.06Zm1.88 30.56h-12.67v-11.6h12.67c5.62 0 8.64 1.88 8.64 5.83 0 4.02-3.02 5.77-8.64 5.77m36.85 8.17h10.85v-38.06h15.01v-8.84h-40.87v8.84h15.01Z"/></svg>