<svg xmlns="http://www.w3.org/2000/svg" width="900" height="700" viewBox="0 0 900 700"><rect width="100%" height="100%" fill="#2250d0"/><path fill="#f5f0e8" d="M192.78 364.66c10.4 0 15.45-5.2 15.45-11.28 0-13.36-21.17-8.74-21.17-15.44 0-2.29 1.93-4.16 6.92-4.16 3.22 0 6.71.93 10.09 2.86l2.6-6.4c-3.38-2.13-8.06-3.22-12.64-3.22-10.35 0-15.34 5.14-15.34 11.33 0 13.52 21.16 8.84 21.16 15.65 0 2.24-2.02 3.9-7.02 3.9-4.36 0-8.94-1.56-12.01-3.79l-2.86 6.34c3.23 2.5 9.05 4.21 14.82 4.21m31.93-29.01c-4.47 0-9 1.19-12.06 3.38l2.91 5.67c2.03-1.62 5.09-2.6 8.06-2.6 4.37 0 6.45 2.02 6.45 5.51h-6.45c-8.53 0-12.01 3.43-12.01 8.37 0 4.84 3.9 8.48 10.45 8.48 4.11 0 7.02-1.36 8.53-3.9v3.48h7.59v-15.96c0-8.48-4.94-12.43-13.47-12.43m-.62 23.35c-2.86 0-4.58-1.36-4.58-3.38 0-1.88 1.2-3.28 4.99-3.28h5.57v2.86c-.94 2.55-3.28 3.8-5.98 3.8m57.25-23.35c-4.21 0-7.85 1.71-10.09 4.57-1.98-3.06-5.3-4.57-9.2-4.57-3.59 0-6.71 1.25-8.79 3.64v-3.23h-7.75v27.98h8.11V350c0-4.99 2.55-7.33 6.14-7.33 3.38 0 5.3 2.08 5.3 6.6v14.77h8.11V350c0-4.99 2.55-7.33 6.19-7.33 3.28 0 5.31 2.08 5.31 6.6v14.77h8.11v-16.02c0-8.52-4.79-12.37-11.44-12.37m28.13 28.81c8.37 0 13.21-3.7 13.21-8.9 0-11.02-16.9-6.39-16.9-11.18 0-1.45 1.56-2.6 5.2-2.6 2.55 0 5.3.52 8.06 2.08l2.7-5.77c-2.65-1.56-6.91-2.44-10.76-2.44-8.17 0-12.95 3.74-12.95 9.05 0 11.18 16.9 6.5 16.9 11.07 0 1.56-1.4 2.55-5.15 2.55-3.43 0-7.23-1.09-9.72-2.7l-2.71 5.82c2.6 1.72 7.39 3.02 12.12 3.02m38.27-28.4v13.84c0 5.14-2.7 7.54-6.45 7.54-3.58 0-5.66-2.08-5.66-6.76v-14.62h-8.12v15.81c0 8.63 4.94 12.59 11.96 12.59 3.44 0 6.56-1.3 8.69-3.75v3.33h7.69v-27.98Zm32.66-.41c-3.8 0-7.07 1.3-9.26 3.69v-3.28h-7.75v27.98h8.12v-13.83c0-5.15 2.8-7.54 6.7-7.54 3.59 0 5.67 2.08 5.67 6.6v14.77h8.11v-16.02c0-8.52-4.99-12.37-11.59-12.37m40.4.41v3.59c-2.13-2.7-5.35-4-9.25-4-7.75 0-13.99 5.35-13.99 13.52 0 8.16 6.24 13.52 13.99 13.52 3.64 0 6.7-1.15 8.84-3.49v1.2c0 5.04-2.5 7.64-8.22 7.64-3.59 0-7.49-1.24-9.88-3.17l-3.22 5.83c3.27 2.54 8.42 3.84 13.72 3.84 10.09 0 15.71-4.78 15.71-15.18v-23.3Zm-7.64 19.97c-4.27 0-7.39-2.75-7.39-6.86s3.12-6.87 7.39-6.87c4.26 0 7.33 2.76 7.33 6.87s-3.07 6.86-7.33 6.86m62.76-.1c-2.13 1.14-4.26 1.56-6.55 1.56-6.97 0-11.8-4.84-11.8-11.65 0-6.92 4.83-11.65 11.9-11.65 3.7 0 6.76 1.3 9.42 4.11l5.4-4.99c-3.53-4.11-8.84-6.29-15.23-6.29-11.6 0-20.02 7.85-20.02 18.82s8.42 18.82 19.86 18.82c5.2 0 10.71-1.61 14.72-4.62v-14.77h-7.7Zm26.21-20.28c-4.47 0-9 1.19-12.06 3.38l2.91 5.67c2.03-1.62 5.09-2.6 8.06-2.6 4.37 0 6.45 2.02 6.45 5.51h-6.45c-8.53 0-12.01 3.43-12.01 8.37 0 4.84 3.9 8.48 10.45 8.48 4.11 0 7.02-1.36 8.53-3.9v3.48h7.59v-15.96c0-8.48-4.94-12.43-13.47-12.43m-.62 23.35c-2.86 0-4.58-1.36-4.58-3.38 0-1.88 1.2-3.28 4.99-3.28h5.57v2.86c-.94 2.55-3.28 3.8-5.98 3.8m21.42 5.04h8.11v-38.58h-8.11Zm26.94-28.39c-4.48 0-9 1.19-12.07 3.38l2.91 5.67c2.03-1.62 5.1-2.6 8.06-2.6 4.37 0 6.45 2.02 6.45 5.51h-6.45c-8.52 0-12.01 3.43-12.01 8.37 0 4.84 3.9 8.48 10.45 8.48 4.11 0 7.02-1.36 8.53-3.9v3.48h7.59v-15.96c0-8.48-4.94-12.43-13.46-12.43m-.63 23.35c-2.86 0-4.57-1.36-4.57-3.38 0-1.88 1.19-3.28 4.99-3.28h5.56v2.86c-.93 2.55-3.27 3.8-5.98 3.8m48.41 5.04-10.81-14.3 10.4-13.68h-8.63l-6.09 8.17-5.93-8.17h-9.1l10.4 13.89-10.76 14.09h8.84l6.34-8.58 6.14 8.58Zm22.36-27.98-7.9 18.98-7.85-18.98h-8.37L608 364.25l-.1.26c-1.09 2.49-2.34 3.48-4.58 3.48-1.61 0-3.33-.67-4.57-1.77l-2.97 5.78c1.82 1.61 4.94 2.54 7.8 2.54 5.05 0 8.89-2.02 11.6-8.78l12.63-29.7Zm38.38 28.6c10.4 0 15.44-5.2 15.44-11.28 0-13.36-21.16-8.74-21.16-15.44 0-2.29 1.92-4.16 6.92-4.16 3.22 0 6.7.93 10.08 2.86l2.6-6.4c-3.38-2.13-8.06-3.22-12.63-3.22-10.35 0-15.34 5.14-15.34 11.33 0 13.52 21.16 8.84 21.16 15.65 0 2.24-2.03 3.9-7.02 3.9-4.37 0-8.94-1.56-12.01-3.79l-2.86 6.34c3.22 2.5 9.05 4.21 14.82 4.21m30.47-7.48 8.37-7.91c5.1-4.73 6.09-7.95 6.09-11.49 0-6.6-5.41-10.76-13.52-10.76-6.55 0-11.65 2.65-14.46 6.76l6.14 3.95c1.77-2.45 4.42-3.64 7.54-3.64 3.85 0 5.82 1.66 5.82 4.52 0 1.77-.57 3.64-3.79 6.71l-14.04 13.26v5.46h27.5v-6.86Zm17.47-29.54v6.76h7.28v29.64h8.43v-36.4Z"/></svg>